<svg xmlns="http://www.w3.org/2000/svg" xmlns:xlink="http://www.w3.org/1999/xlink" viewBox="0 0 80 80"><defs><style>.a,.g{fill:none;}.b{fill:#d6e1ea;}.c{clip-path:url(#a);}.d{fill:#549ad3;}.e{fill:#333a48;}.f{fill:#fff;}.g{stroke:#fff;stroke-linecap:round;stroke-linejoin:round;stroke-width:1.5px;stroke-dasharray:28 0 4;}</style><clipPath id="a"><circle class="a" cx="40" cy="40" r="40"/></clipPath></defs><title>TOTP option</title><circle class="b" cx="40" cy="40" r="40"/><g class="c"><rect class="d" x="20.7" y="14.74" width="38.6" height="72.98" rx="5.26" ry="5.26"/><path class="e" d="M54,15.79A4.22,4.22,0,0,1,58.25,20V82.46A4.22,4.22,0,0,1,54,86.67H26a4.22,4.22,0,0,1-4.21-4.21V20A4.22,4.22,0,0,1,26,15.79H54m0-2.11H26A6.32,6.32,0,0,0,19.65,20V82.46A6.32,6.32,0,0,0,26,88.77H54a6.32,6.32,0,0,0,6.31-6.31V20A6.32,6.32,0,0,0,54,13.68Z"/><rect class="e" x="29.47" y="13.68" width="21.05" height="4.21" rx="2.11" ry="2.11"/><path class="f" d="M29.73,60.82l1-.33.23.72-1,.32.62.86-.62.45L29.35,62l-.61.86-.63-.45.63-.86-1-.32.23-.72,1,.33v-1h.75Z"/><path class="f" d="M33.52,60.82l1-.33.23.72-1,.32.62.86-.62.45L33.14,62l-.61.86-.63-.45.63-.86-1-.32.23-.72,1,.33v-1h.75Z"/><path class="f" d="M37.31,60.82l1-.33.23.72-1,.32.62.86-.62.45L36.93,62l-.61.86-.63-.45.63-.86-1-.32.23-.72,1,.33v-1h.75Z"/><path class="f" d="M43.49,60.82l1-.33.23.72-1,.32.61.86-.61.45L43.1,62l-.61.86-.62-.45.62-.86-1-.32.23-.72,1,.33v-1h.76Z"/><path class="f" d="M47.28,60.82l1-.33.23.72-1,.32.61.86-.61.45L46.89,62l-.61.86-.62-.45.62-.86-1-.32.24-.72,1,.33v-1h.76Z"/><path class="f" d="M51.07,60.82l1-.33.23.72-1,.32.61.86-.61.45L50.68,62l-.61.86-.62-.45.62-.86-1-.32.24-.72,1,.33v-1h.76Z"/><path class="f" d="M37.8,41.23H34.92l-.21-.92,3.23-3.75H39v3.61h.79v1.06H39V42.5H37.8Zm0-1.06V38.34l-1.57,1.83Z"/><path class="f" d="M40.61,41.72l.78-.94a2.1,2.1,0,0,0,1.41.64c.61,0,1-.29,1-.82h0c0-.51-.43-.8-1-.8a2.44,2.44,0,0,0-1,.22l-.75-.5.16-2.91H44.8v1.14H42.29l-.07,1a2.88,2.88,0,0,1,.77-.1c1.15,0,2.07.55,2.07,1.88v0a2,2,0,0,1-2.24,2A3.05,3.05,0,0,1,40.61,41.72Z"/><circle class="g" cx="40" cy="40.35" r="10.53"/></g></svg>